<svg xmlns="http://www.w3.org/2000/svg" viewBox="0 0 512 512" role="img" aria-labelledby="title desc">
  <title id="title">Basketball</title>
  <desc id="desc">An orange basketball with black curved seams and a subtle highlight.</desc>
  <defs>
    <radialGradient id="ballGradient" cx="34%" cy="26%" r="76%">
      <stop offset="0%" stop-color="#ffcf82" />
      <stop offset="42%" stop-color="#f28c28" />
      <stop offset="100%" stop-color="#b55212" />
    </radialGradient>
    <filter id="softShadow" x="-20%" y="-20%" width="140%" height="140%">
      <feDropShadow dx="0" dy="12" stdDeviation="14" flood-color="#2b1300" flood-opacity="0.28" />
    </filter>
  </defs>

  <circle cx="256" cy="256" r="222" fill="url(#ballGradient)" filter="url(#softShadow)" />
  <circle cx="256" cy="256" r="222" fill="none" stroke="#1f1408" stroke-width="18" />

  <path d="M256 38 C222 112 205 185 205 256 C205 327 222 400 256 474" fill="none" stroke="#1f1408" stroke-width="16" stroke-linecap="round" />
  <path d="M256 38 C290 112 307 185 307 256 C307 327 290 400 256 474" fill="none" stroke="#1f1408" stroke-width="16" stroke-linecap="round" />
  <path d="M38 256 H474" fill="none" stroke="#1f1408" stroke-width="16" stroke-linecap="round" />
  <path d="M81 130 C157 173 222 190 256 190 C290 190 355 173 431 130" fill="none" stroke="#1f1408" stroke-width="16" stroke-linecap="round" />
  <path d="M81 382 C157 339 222 322 256 322 C290 322 355 339 431 382" fill="none" stroke="#1f1408" stroke-width="16" stroke-linecap="round" />

  <ellipse cx="178" cy="146" rx="58" ry="35" fill="#ffd69a" opacity="0.36" transform="rotate(-25 178 146)" />
</svg>
